<svg class="svg-icon" style="width: 1em; height: 1em;vertical-align: middle;fill: currentColor;overflow: hidden;" viewBox="0 0 1024 1024" version="1.1" xmlns="http://www.w3.org/2000/svg"><path d="M512 658.286a201.143 201.143 0 0 0 201.143-201.143V256a201.143 201.143 0 0 0-402.286 0v201.143A201.143 201.143 0 0 0 512 658.286zM365.714 256a146.286 146.286 0 0 1 292.572 0v201.143a146.286 146.286 0 0 1-292.572 0z"  /><path d="M841.143 475.429a27.429 27.429 0 0 0-54.857 0 256 256 0 0 1-256 256h-36.572a256 256 0 0 1-256-256 27.429 27.429 0 0 0-54.857 0 310.857 310.857 0 0 0 301.714 310.857V932.57H365.714a27.429 27.429 0 0 0 0 54.858h292.572a27.429 27.429 0 0 0 0-54.858H539.429V786.286a310.857 310.857 0 0 0 301.714-310.857z"  /></svg>